<?xml version="1.0" encoding="UTF-8"?>
<!-- Created with Inkscape (http://www.inkscape.org/) -->
<svg width="512" height="512" version="1.1" viewBox="0 0 135.47 135.47" xml:space="preserve" xmlns="http://www.w3.org/2000/svg"><g fill="#009cde"><path d="m103.72 34.198c-4.2744-4.2724-8.3526-8.3452-9.5664-12.939-1.2138 4.5934-5.2927 8.6662-9.5664 12.939-6.4106 6.4066-13.679 13.667-13.679 24.557a23.246 23.246 0 1 0 46.492 0c0-10.889-7.2677-18.151-13.68-24.557m-22.931 29.974c-1.4253-0.04842-6.6857-9.1154 3.0731-18.769l6.4578 7.0541a0.55201 0.55201 0 0 1-0.04313 0.82374c-1.541 1.5805-8.1091 8.167-8.9255 10.444-0.1685 0.47009-0.4146 0.4523-0.56236 0.44724m13.366 11.95a7.9948 7.9948 0 0 1-7.9949-7.9949 8.3308 8.3308 0 0 1 1.9927-5.2808c1.4416-1.7628 6.0011-6.7207 6.0011-6.7207s4.4897 5.0307 5.9904 6.7039a7.8185 7.8185 0 0 1 2.0056 5.2977 7.9949 7.9949 0 0 1-7.9949 7.9949m15.302-12.965c-0.17231 0.37685-0.5632 1.006-1.0908 1.0252-0.94041 0.03429-1.0409-0.44761-1.736-1.4763-1.526-2.2583-14.843-16.176-17.334-18.868-2.191-2.3675-0.30853-4.0366 0.56468-4.9114 1.0955-1.0975 4.2933-4.2933 4.2933-4.2933s9.5351 9.0469 13.507 15.228c3.972 6.1815 2.6031 11.53 1.796 13.296" stroke-width=".26458"/><path d="m97.093 115.02c-11.578-0.37863-26.447-3.1842-39.052-13.038-8.6276-6.7444-14.88-15.2-18.316-24.641-1.4039-3.8573-1.0764-4.7526-2.0328-8.1881-1.3267-4.7657-4.1289-8.7168-7.9378-11.193-12.374-8.042-15.886-10.159-18.853-11.894-5.9187-3.4615-4.8695-2.2513-7.2568-4.1861-1.3306-1.0784-1.8562-2.4677-1.9535-3.9614-0.16981-2.6083 2.0944-5.528 2.9166-6.1477 2.7314-2.0589 5.575-1.7192 5.9395-1.6652 1.0106 0.14966 1.8224 0.40838 2.7369 0.87226 0.67007 0.33988 1.0264 0.57014 1.9429 1.2557 1.2233 0.91495 1.8134 1.3469 4.1588 3.0438 4.3372 3.138 6.3399 4.6386 8.5993 6.4432 4.283 3.4208 7.4997 6.487 9.7428 9.287 1.2418 1.6862 2.2472 3.4492 4.3116 4.2369 1.2259 0.4102 2.6441 0.3959 4.0691-0.04102 2.7114-0.83134 5.4085-1.0058 7.9397-0.78913 1.469 0.12575 4.6329 0.44695 6.472 2.0339-3.5189-0.07173-5.132 0.10623-6.6571 0.35742-3.6296 0.59782-5.9012 1.8253-6.7568 3.651-0.75906 1.5501-0.17771 4.157 1.2928 6.1837 1.3176 1.8159 3.5491 4.1691 5.9194 6.2421 5.6084 4.9051 12.606 9.1665 20.868 12.708 5.8462 2.506 12.263 4.8291 18.054 6.5363 10.083 2.9725 18.462 4.1954 24.803 3.6201 4.5011-0.40843 6.2621-1.3673 7.4388-3.2828 3.4037-5.5408-4.8355-12.065-4.5308-12.369 0.0441-0.04415 12.579 4.4293 12.58 14.053 4.6e-4 8.4238-9.1085 14.279-14.586 17.039-7.9449 4.0025-19.041 3.926-21.853 3.834z"/></g></svg>
